<svg height="512" viewBox="0 0 512 512" width="512" xmlns="http://www.w3.org/2000/svg"><g id="outline"><path d="m472 16h-416a24.028 24.028 0 0 0 -24 24v217.376a24.039 24.039 0 0 0 -16 22.624v192a24.027 24.027 0 0 0 24 24h128a24.027 24.027 0 0 0 24-24v-136h23.852a86.948 86.948 0 0 1 -14.508 43.562 8 8 0 0 0 6.656 12.438h112a8 8 0 0 0 6.656-12.438 86.948 86.948 0 0 1 -14.508-43.562h159.852a24.027 24.027 0 0 0 24-24v-272a24.028 24.028 0 0 0 -24-24zm-416 16h416a8.009 8.009 0 0 1 8 8v232h-16v-40a8 8 0 0 0 -8-8h-104a8 8 0 0 0 -8 8v40h-16v-40a8 8 0 0 0 -8-8h-112a8 8 0 0 0 -8 8v40h-9.376a24.076 24.076 0 0 0 -6.624-9.869v-30.131a8 8 0 0 0 -8-8h-104a8 8 0 0 0 -8 8v24h-16v-216a8.009 8.009 0 0 1 8-8zm392 240h-88v-32h88zm-136 0h-96v-32h96zm-144-16h-88v-16h88zm-128 16h128a8.009 8.009 0 0 1 8 8v8h-144v-8a8.009 8.009 0 0 1 8-8zm136 32v144h-144v-144zm-8 176h-128a8.009 8.009 0 0 1 -8-8v-8h144v8a8.009 8.009 0 0 1 -8 8zm138.237-104h-84.474a102.836 102.836 0 0 0 10.125-40h64.224a102.836 102.836 0 0 0 10.125 40zm165.763-56h-280v-32h288v24a8.009 8.009 0 0 1 -8 8z"/><circle cx="264" cy="304" r="8"/><path d="m72 112h384a8 8 0 0 0 8-8v-48a8 8 0 0 0 -8-8h-384a8 8 0 0 0 -8 8v48a8 8 0 0 0 8 8zm8-48h368v32h-368z"/><path d="m72 208h104a8 8 0 0 0 8-8v-64a8 8 0 0 0 -8-8h-104a8 8 0 0 0 -8 8v64a8 8 0 0 0 8 8zm8-64h88v48h-88z"/><path d="m456 128h-104a8 8 0 0 0 -8 8v64a8 8 0 0 0 8 8h104a8 8 0 0 0 8-8v-64a8 8 0 0 0 -8-8zm-8 64h-88v-48h88z"/><path d="m320 128h-112a8 8 0 0 0 -8 8v64a8 8 0 0 0 8 8h112a8 8 0 0 0 8-8v-64a8 8 0 0 0 -8-8zm-8 64h-96v-48h96z"/><path d="m448 496a8 8 0 0 0 8-8v-128a8 8 0 0 0 -8-8h-80a8 8 0 0 0 -8 8v128a8 8 0 0 0 8 8zm-40-16h-32v-16h64v16zm32-112v80h-64v-80z"/><circle cx="408" cy="472" r="8"/><path d="m384 384h48v16h-48z"/><path d="m384 416h48v16h-48z"/><circle cx="104" cy="472" r="8"/><path d="m56 368h96a8 8 0 0 0 8-8v-32a8 8 0 0 0 -8-8h-96a8 8 0 0 0 -8 8v32a8 8 0 0 0 8 8zm8-32h80v16h-80z"/><path d="m128 384h32v16h-32z"/><path d="m128 416h32v16h-32z"/><path d="m88 384h32v16h-32z"/><path d="m88 416h32v16h-32z"/><path d="m48 384h32v16h-32z"/><path d="m48 416h32v16h-32z"/></g></svg>