<?xml version="1.0" encoding="iso-8859-1"?>
<!-- Generator: Adobe Illustrator 19.0.0, SVG Export Plug-In . SVG Version: 6.00 Build 0)  -->
<svg version="1.1" id="Capa_1" xmlns="http://www.w3.org/2000/svg" xmlns:xlink="http://www.w3.org/1999/xlink" x="0px" y="0px"
	 viewBox="0 0 512 512" style="enable-background:new 0 0 512 512;" xml:space="preserve">
<g>
	<g>
		<path d="M509.635,457.916L323.965,167.72c-8.305-13.05-22.497-20.841-37.965-20.841c-15.468,0-29.66,7.791-37.965,20.84
			l-69.052,108.51c-7.836-6.237-17.625-9.751-27.982-9.752c-0.001,0,0,0-0.001,0c-15.383,0-29.534,7.726-37.819,20.614
			L2.416,457.837c-2.992,4.612-3.222,10.492-0.597,15.324C4.444,477.992,9.502,481,15,481c19.344,0,464.427,0,482,0
			c5.481,0,10.526-2.99,13.158-7.798C512.79,468.394,512.589,462.533,509.635,457.916z M273.346,183.825
			c2.809-4.415,7.421-6.946,12.654-6.946c5.233,0,9.846,2.532,12.675,6.978l40.088,62.656l-20.885,39.514L298.7,255.518
			c-2.866-4.562-7.969-7.236-13.345-7.004c-5.384,0.232-10.229,3.334-12.693,8.126l-14.82,28.816l-24.15-39.315L273.346,183.825z
			 M42.611,451l95.771-147.633c2.814-4.378,7.414-6.889,12.619-6.889c5.204,0,9.803,2.511,12.616,6.889L258.526,451
			C254.128,451,47.312,451,42.611,451z M294.19,451l-95.917-149.204l17.503-27.504l30.443,49.559
			c2.835,4.615,7.937,7.354,13.35,7.138c5.413-0.206,10.294-3.313,12.771-8.129l14.966-29.099l18.996,30.221
			c2.751,4.377,7.554,7.018,12.697,7.018c0.188,0,0.376-0.003,0.563-0.011c5.354-0.201,10.196-3.242,12.7-7.979l25.083-47.454
			L469.596,451H294.19z"/>
	</g>
</g>
<g>
	<g>
		<path d="M136,31c-41.355,0-75,33.645-75,75s33.645,75,75,75s75-33.645,75-75S177.355,31,136,31z M136,151
			c-24.813,0-45-20.187-45-45s20.187-45,45-45s45,20.187,45,45S160.813,151,136,151z"/>
	</g>
</g>
<g>
</g>
<g>
</g>
<g>
</g>
<g>
</g>
<g>
</g>
<g>
</g>
<g>
</g>
<g>
</g>
<g>
</g>
<g>
</g>
<g>
</g>
<g>
</g>
<g>
</g>
<g>
</g>
<g>
</g>
</svg>
