<svg id="Capa_1" enable-background="new 0 0 512 512" height="512" viewBox="0 0 512 512" width="512" xmlns="http://www.w3.org/2000/svg"><g><g><g><g><g><g><path d="m23.162 362.558c-14.872-32.444-23.162-68.533-23.162-106.558 0-141.385 114.615-256 256-256s256 114.615 256 256c0 47.117-12.729 91.26-34.935 129.18z" fill="#ffce00"/></g></g></g></g></g></g><path d="m477.065 385.18c22.206-37.92 34.935-82.063 34.935-129.18 0-16.591-1.578-32.813-4.593-48.524l-63.99-77.432-93.455 110.146-118.913-118.912-149.017 116.799 43.412 43.412-4.156 2.072 165.959 165.959z" fill="#ffa300"/><circle cx="362.39" cy="182.437" fill="#636978" r="96.482"/><path d="m362.39 85.955c53.285 0 96.482 43.196 96.482 96.482s-43.196 96.482-96.698 96.482l.031-192.964z" fill="#414952"/><g><g><g><circle cx="97.525" cy="223.651" fill="#cc6d58" r="21.174"/></g><g><circle cx="240.029" cy="223.651" fill="#c15e4d" r="21.174"/></g></g><g><path d="m262.717 315.543h-187.878c-27.017 0-49.212 20.641-51.676 47.014 40.424 88.188 129.477 149.443 232.837 149.443 20.17 0 39.795-2.333 58.62-6.743v-137.811c0-28.665-23.238-51.903-51.903-51.903z" fill="#64e1dc"/></g><g><path d="m262.717 315.543h-93.942l-.004 181.21c27.225 9.866 56.598 15.247 87.229 15.247 20.17 0 39.795-2.333 58.62-6.743v-137.811c0-28.665-23.238-51.903-51.903-51.903z" fill="#00c8c8"/></g><g><path d="m168.775 348.51c21.757 0 40.313-13.713 47.492-32.968l-.075-.04c-9.552-5.106-15.515-15.057-15.515-25.887v-28.379h-63.798v28.379c0 10.831-5.964 20.781-15.515 25.887l-.075.04c7.178 19.255 25.729 32.968 47.486 32.968z" fill="#cc6d58"/></g><g><path d="m216.192 315.502c-9.552-5.106-15.515-15.057-15.515-25.887v-28.379h-31.902v87.275c21.757 0 40.313-13.713 47.492-32.968z" fill="#c15e4d"/></g><g><path d="m168.775 301.135c-40.294 0-72.956-32.664-72.956-72.958v-38.409c0-40.294 32.664-72.958 72.958-72.958 40.294 0 72.958 32.664 72.958 72.958v38.409c.001 40.293-32.666 72.958-72.96 72.958z" fill="#d47f6c"/></g><g><path d="m168.777 116.809c-.002 0-.004 0-.006 0l.004 184.325c40.294 0 72.961-32.664 72.961-72.958v-38.409c0-40.293-32.665-72.958-72.959-72.958z" fill="#cc6d58"/></g><g><path d="m243.827 208.417c-13.135 0-23.977-27.98-25.587-50.427-12.585 8.287-30.097 13.426-49.463 13.426s-36.878-5.139-49.463-13.426c-1.61 22.446-12.452 50.427-25.587 50.427v-48.82c0-35.255 28.58-63.835 63.835-63.835h22.43c35.255 0 63.835 28.58 63.835 63.835z" fill="#636978"/></g><g><path d="m179.992 95.762h-11.221v75.655h.006c19.365 0 36.878-5.139 49.463-13.427 1.61 22.446 12.452 50.427 25.587 50.427v-48.82c0-35.255-28.58-63.835-63.835-63.835z" fill="#414952"/></g></g><g><g><path d="m247.715 511.868c2.751.087 5.513.132 8.285.132 94.268 0 176.636-50.953 221.065-126.821v-27.265c0-22.54-18.272-40.811-40.811-40.811h-147.728c-22.539 0-40.811 18.272-40.811 40.811z" fill="#ff6c52"/></g><g><path d="m436.254 317.103h-74.109v171.915c48.169-21.978 88.337-58.446 114.92-103.839v-27.265c0-22.539-18.272-40.811-40.811-40.811z" fill="#f92814"/></g><g><path d="m387.472 290.729v-22.314h-50.164v22.314c0 8.516-4.689 16.34-12.2 20.355l-11.26 6.019v1.623c0 26.809 21.733 48.542 48.542 48.542 26.809 0 48.542-21.733 48.542-48.542v-1.623l-11.26-6.019c-7.511-4.015-12.2-11.839-12.2-20.355z" fill="#c15e4d"/></g><g><path d="m399.672 311.084c-7.51-4.015-12.2-11.839-12.2-20.355v-22.314h-25.327v98.847c.082 0 .163.006.245.006 26.809 0 48.542-21.733 48.542-48.542v-1.623z" fill="#af493c"/></g><g><path d="m295.773 187.38v32.295c0 38.162 29.825 69.099 66.617 69.099 36.792 0 66.617-30.937 66.617-69.099v-32.295z" fill="#cc6d58"/></g><g><path d="m362.145 187.38v101.387c.082 0 .163.006.245.006 36.792 0 66.617-30.937 66.617-69.099v-32.294z" fill="#c15e4d"/></g></g></svg>